<?xml version="1.0" encoding="utf-8"?>
<svg version="1.1" id="Layer_1"
xmlns="http://www.w3.org/2000/svg"
xmlns:xlink="http://www.w3.org/1999/xlink"
width="178px" height="65px"
xml:space="preserve">
<g id="PathID_1" transform="matrix(1.18397, 0, 0, 0.448204, 0.2, -0.95)" opacity="1">
<radialGradient
id="RadialGradID_1" gradientUnits="userSpaceOnUse" gradientTransform="matrix(-4.0019e-009, 0.0915527, -0.0915527, -4.0019e-009, 75, 75)" spreadMethod ="pad" cx="0" cy="0" r="819.2" fx="0" fy="0" >
<stop  offset="0.568627"  style="stop-color:#FFF6BA;stop-opacity:1" />
<stop  offset="1"  style="stop-color:#FFD836;stop-opacity:1" />
</radialGradient>
<path style="fill:url(#RadialGradID_1) " d="M0 0L150 0L150 150L0 150L0 0" />
</g>
<g id="PathID_2" transform="matrix(1.18397, 0, 0, 0.448204, 0.2, -0.95)" opacity="1">
</g>
<g id="PathID_3" transform="matrix(1.22208, 0, 0, 0.928246, 6, 52.35)" opacity="1">
<linearGradient
id="LinearGradID_2" gradientUnits="userSpaceOnUse" gradientTransform="matrix(-9.47649e-010, 0.0216797, -0.0231934, -1.01381e-009, 20, -18.35)" spreadMethod ="pad" x1="-819.2" y1="0" x2="819.2" y2="0" >
<stop  offset="0" style="stop-color:#FA3900;stop-opacity:1" />
<stop  offset="1" style="stop-color:#B00200;stop-opacity:1" />
</linearGradient>
<path style="fill:url(#LinearGradID_2) " d="M2.25 -18.1Q2.25 -23.7 3.9 -27.5Q5.15 -30.3 7.3 -32.5Q9.5 -34.75 12.05 -35.8Q15.5 -37.3 19.95 -37.3Q28.05 -37.3 32.9 -32.25Q37.8 -27.2 37.8 -18.25Q37.8 -9.35 32.95 -4.35Q28.15 0.65 20.05 0.65Q11.9 0.65 7.05 -4.3Q2.25 -9.3 2.25 -18.1M9.9 -18.35Q9.9 -12.1 12.75 -8.9Q15.6 -5.7 20.05 -5.7Q24.45 -5.7 27.3 -8.85Q30.15 -12.05 30.15 -18.45Q30.15 -24.75 27.35 -27.85Q24.6 -30.95 20.05 -30.95Q15.45 -30.95 12.65 -27.8Q9.9 -24.65 9.9 -18.35" />
</g>
<g id="PathID_4" transform="matrix(1.22208, 0, 0, 0.928246, 6, 52.35)" opacity="1">
</g>
<g id="PathID_5" transform="matrix(1.22208, 0, 0, 0.928246, 48.15, 50.65)" opacity="1">
<linearGradient
id="LinearGradID_3" gradientUnits="userSpaceOnUse" gradientTransform="matrix(-2.57615e-009, 0.0589355, -0.0227539, -9.94605e-010, 51.35, -18.05)" spreadMethod ="pad" x1="-819.2" y1="0" x2="819.2" y2="0" >
<stop  offset="0" style="stop-color:#794836;stop-opacity:1" />
<stop  offset="1" style="stop-color:#400F00;stop-opacity:1" />
</linearGradient>
<path style="fill:url(#LinearGradID_3) " d="M3.15 -26.55L9.65 -26.55L9.65 -22.9Q13.1 -27.15 17.9 -27.15Q20.5 -27.15 22.35 -26.05Q24.25 -25 25.45 -22.9Q27.2 -25 29.2 -26.05Q31.25 -27.15 33.55 -27.15Q36.5 -27.15 38.5 -25.95Q40.55 -24.75 41.55 -22.45Q42.3 -20.75 42.3 -16.95L42.3 0L35.25 0L35.25 -15.15Q35.25 -19.1 34.5 -20.25Q33.55 -21.75 31.5 -21.75Q30.05 -21.75 28.75 -20.85Q27.45 -19.95 26.85 -18.2Q26.3 -16.45 26.3 -12.7L26.3 0L19.25 0L19.25 -14.5Q19.25 -18.4 18.85 -19.5Q18.45 -20.65 17.65 -21.2Q16.9 -21.75 15.55 -21.75Q13.9 -21.75 12.6 -20.85Q11.3 -20 10.75 -18.35Q10.2 -16.7 10.2 -12.85L10.2 0L3.15 0L3.15 -26.55" />
</g>
<g id="PathID_6" transform="matrix(1.22208, 0, 0, 0.928246, 48.15, 50.65)" opacity="1">
</g>
<g id="PathID_7" transform="matrix(1.22208, 0, 0, 0.928246, 99.85, 50.65)" opacity="1">
<linearGradient
id="LinearGradID_4" gradientUnits="userSpaceOnUse" gradientTransform="matrix(-2.57615e-009, 0.0589355, -0.0227539, -9.94605e-010, 9.05, -18.05)" spreadMethod ="pad" x1="-819.2" y1="0" x2="819.2" y2="0" >
<stop  offset="0" style="stop-color:#794836;stop-opacity:1" />
<stop  offset="1" style="stop-color:#400F00;stop-opacity:1" />
</linearGradient>
<path style="fill:url(#LinearGradID_4) " d="M28.05 0L21.5 0L21.5 -3.9Q19.85 -1.6 17.65 -0.5Q15.45 0.6 13.2 0.6Q8.6 0.6 5.35 -3.05Q2.1 -6.75 2.1 -13.35Q2.1 -20.1 5.25 -23.6Q8.45 -27.15 13.3 -27.15Q17.75 -27.15 21 -23.45L21 -36.65L28.05 -36.65L28.05 0M9.3 -13.8Q9.3 -9.55 10.45 -7.65Q12.15 -4.95 15.2 -4.95Q17.65 -4.95 19.35 -7Q21.05 -9.05 21.05 -13.15Q21.05 -17.7 19.4 -19.7Q17.75 -21.75 15.15 -21.75Q12.65 -21.75 10.95 -19.75Q9.3 -17.75 9.3 -13.8" />
</g>
<g id="PathID_8" transform="matrix(1.22208, 0, 0, 0.928246, 99.85, 50.65)" opacity="1">
</g>
<g id="PathID_9" transform="matrix(1.22208, 0, 0, 0.928246, 134.15, 50.65)" opacity="1">
<linearGradient
id="LinearGradID_5" gradientUnits="userSpaceOnUse" gradientTransform="matrix(-2.57615e-009, 0.0589355, -0.0227539, -9.94605e-010, -19, -18.05)" spreadMethod ="pad" x1="-819.2" y1="0" x2="819.2" y2="0" >
<stop  offset="0" style="stop-color:#794836;stop-opacity:1" />
<stop  offset="1" style="stop-color:#400F00;stop-opacity:1" />
</linearGradient>
<path style="fill:url(#LinearGradID_5) " d="M3.4 0L3.4 -36.65L10.45 -36.65L10.45 -23.45Q13.65 -27.15 18.1 -27.15Q22.95 -27.15 26.1 -23.6Q29.3 -20.1 29.3 -13.55Q29.3 -6.75 26.05 -3.05Q22.8 0.6 18.2 0.6Q15.95 0.6 13.7 -0.5Q11.5 -1.65 9.95 -3.9L9.95 0L3.4 0M10.35 -13.8Q10.35 -9.7 11.65 -7.7Q13.45 -4.95 16.5 -4.95Q18.8 -4.95 20.45 -6.9Q22.1 -8.9 22.1 -13.15Q22.1 -17.7 20.45 -19.7Q18.8 -21.75 16.2 -21.75Q13.7 -21.75 12 -19.75Q10.35 -17.8 10.35 -13.8" />
</g>
<g id="PathID_10" transform="matrix(1.22208, 0, 0, 0.928246, 134.15, 50.65)" opacity="1">
</g>
</svg>
